<svg width="24" height="24" viewBox="0 0 24 24" fill="none" xmlns="http://www.w3.org/2000/svg">
<path d="M10.0114 16.5C10.0114 16.2239 10.2352 16 10.5114 16C10.7875 16 11.0114 16.2239 11.0114 16.5C11.0114 17.8807 9.89207 19 8.51136 19H4.5C3.11929 19 2 17.8807 2 16.5V6.5C2 5.11929 3.11929 4 4.5 4H8.51136C9.89207 4 11.0114 5.11929 11.0114 6.5C11.0114 6.77614 10.7875 7 10.5114 7C10.2352 7 10.0114 6.77614 10.0114 6.5C10.0114 5.67157 9.33978 5 8.51136 5H4.5C3.67157 5 3 5.67157 3 6.5V16.5C3 17.3284 3.67157 18 4.5 18H8.51136C9.33978 18 10.0114 17.3284 10.0114 16.5ZM6.51136 12C6.23521 12 6.01136 11.7761 6.01136 11.5C6.01136 11.2239 6.23521 11 6.51136 11H17.5114C17.7875 11 18.0114 11.2239 18.0114 11.5C18.0114 11.7761 17.7875 12 17.5114 12H6.51136ZM14 6.5C14 6.77614 13.7761 7 13.5 7C13.2239 7 13 6.77614 13 6.5C13 5.11929 14.1193 4 15.5 4H19.5114C20.8921 4 22.0114 5.11929 22.0114 6.5V16.5C22.0114 17.8807 20.8921 19 19.5114 19H15.5C14.1193 19 13 17.8807 13 16.5C13 16.2239 13.2239 16 13.5 16C13.7761 16 14 16.2239 14 16.5C14 17.3284 14.6716 18 15.5 18H19.5114C20.3398 18 21.0114 17.3284 21.0114 16.5V6.5C21.0114 5.67157 20.3398 5 19.5114 5H15.5C14.6716 5 14 5.67157 14 6.5Z" fill="black"/>
</svg>
